#!OML:ASF H:\ManfredETheater\Project 1\Capture day 1\Session 1\subject.ASF
:FULLY-SPECIFIED
:DEGREES
385
root 1.34264 16.2266 -11.939 -154.779 2.5899 182.557
lowerback 16.5534 0.409126 4.00502
upperback -0.947674 1.7163 2.15923
thorax -10.3237 0.728361 -0.362416
lowerneck -17.4851 0.0422655 -1.20815
upperneck -0.0138868 0.964333 -2.5493
head 3.08162 0.577445 -0.541374
rclavicle -7.95139e-015 -1.03368e-014
rhumerus -10.5993 19.4663 -85.4546
rradius 115.691
rwrist -14.6912
rhand -28.5037 16.5232
rfingers 7.12502
rthumb -1.87241 -13.4483
lclavicle -7.95139e-015 -1.03368e-014
lhumerus -67.8823 -4.48026 89.1545
lradius 80.2386
lwrist 17.8763
lhand -28.6716 -4.71192
lfingers 7.12502
lthumb -2.03454 25.2581
rfemur -17.5343 -3.54058 27.1841
rtibia 47.6129
rfoot -26.5255 -4.82736
rtoes -26.4395
lfemur -70.4442 5.69401 -17.5663
ltibia 107.437
lfoot -5.63876 -3.61268
ltoes 15.019
386
root 1.34649 16.2346 -12.5347 -154.959 2.40946 182.545
lowerback 16.0145 0.571352 4.38135
upperback -1.05651 1.93169 1.88783
thorax -10.106 0.797793 -0.912884
lowerneck -17.3615 -0.209664 -1.24801
upperneck 0.284536 0.596957 -2.29539
head 3.15934 0.389674 -0.48056
rclavicle 1.03368e-014 2.38542e-015
rhumerus -7.93211 19.1656 -83.6192
rradius 118.82
rwrist -15.58
rhand -28.4288 16.6905
rfingers 7.12502
rthumb -1.8001 -13.2816
lclavicle 1.03368e-014 2.38542e-015
lhumerus -71.8573 -5.47711 89.3418
lradius 82.1732
lwrist 18.5895
lhand -28.0546 -4.9156
lfingers 7.12502
lthumb -1.43864 25.0593
rfemur -13.8211 -3.0669 26.82
rtibia 44.4238
rfoot -24.0082 -4.24534
rtoes -27.1591
lfemur -73.1246 5.12472 -17.6549
ltibia 105.705
lfoot -7.14157 -4.46083
ltoes 11.7224
387
root 1.34974 16.2507 -13.1427 -155.153 2.20833 182.565
lowerback 15.4345 0.797281 4.77549
upperback -1.14108 2.234 1.63654
thorax -9.8277 0.913159 -1.46542
lowerneck -17.2542 -0.546927 -1.38091
upperneck 0.60506 0.136528 -2.03502
head 3.24888 0.156388 -0.40865
rclavicle -5.1684e-015 4.85035e-014
rhumerus -5.5387 18.4434 -81.4948
rradius 121.837
rwrist -16.533
rhand -28.3424 16.7988
rfingers 7.12502
rthumb -1.71663 -13.174
lclavicle -5.1684e-015 4.85035e-014
lhumerus -75.5228 -6.44505 89.5081
lradius 84.0095
lwrist 19.3863
lhand -27.4717 -5.08748
lfingers 7.12502
lthumb -0.875659 24.8905
rfemur -10.138 -2.51412 26.5254
rtibia 41.0851
rfoot -20.6201 -3.62701
rtoes -27.457
lfemur -75.3938 4.56788 -17.6968
ltibia 103.403
lfoot -8.61017 -5.30816
ltoes 8.28507
388
root 1.35167 16.2686 -13.7594 -155.37 1.985 182.625
lowerback 14.8415 1.06819 5.17641
upperback -1.19476 2.59906 1.42027
thorax -9.49793 1.0651 -1.9898
lowerneck -17.1928 -0.408673 -1.7428
upperneck 0.980072 -0.499848 -1.78523
head 3.36578 -0.52864 -0.335502
rclavicle 9.93923e-015 2.38542e-014
rhumerus -3.41042 17.354 -79.1483
rradius 124.672
rwrist -17.5133
rhand -28.2285 16.8415
rfingers 7.12502
rthumb -1.60663 -13.1322
lclavicle 9.93923e-015 2.38542e-014
lhumerus -78.8427 -7.32767 89.6107
lradius 85.6807
lwrist 20.1286
lhand -26.9471 -5.23508
lfingers 7.12502
lthumb -0.369043 24.7443
rfemur -6.53622 -1.89493 26.3137
rtibia 37.6435
rfoot -16.2184 -3.10779
rtoes -27.0527
lfemur -77.2731 4.05052 -17.7006
ltibia 100.613
lfoot -10.0112 -6.10657
ltoes 4.77957
389
root 1.35205 16.2986 -14.3875 -155.572 1.74831 182.735
lowerback 14.2181 1.3677 5.58855
upperback -1.22604 3.0042 1.24428
thorax -9.1168 1.24318 -2.47511
lowerneck -17.2157 -0.852146 -1.97239
upperneck 1.37729 -1.01329 -1.5599
head 3.51411 -0.76342 -0.263444
rclavicle -3.29983e-014 1.03368e-014
rhumerus -1.51659 15.953 -76.665
rradius 127.218
rwrist -18.4807
rhand -27.9929 16.7782
rfingers 7.12502
rthumb -1.37904 -13.1971
lclavicle -3.29983e-014 1.03368e-014
lhumerus -81.7862 -8.07577 89.6113
lradius 87.1523
lwrist 20.6516
lhand -26.511 -5.37264
lfingers 7.12502
lthumb 0.0522398 24.6071
rfemur -3.08677 -1.25571 26.1845
rtibia 34.1223
rfoot -10.7779 -2.87614
rtoes -25.6754
lfemur -78.7143 3.59903 -17.6795
ltibia 97.3276
lfoot -11.3204 -6.81217
ltoes 1.37218
390
root 1.35053 16.3351 -15.023 -155.81 1.45622 182.869
lowerback 13.6433 1.65317 6.00987
upperback -1.22155 3.39656 1.10553
thorax -8.7195 1.42149 -2.91436
lowerneck -17.3427 -1.28095 -2.21543
upperneck 1.80518 -1.5051 -1.34996
head 3.69721 -0.990819 -0.194542
rclavicle -6.36111e-015 1.35174e-014
rhumerus 0.159097 14.3379 -74.1541
rradius 129.394
rwrist -19.3428
rhand -27.7192 16.7452
rfingers 7.12502
rthumb -1.11474 -13.2317
lclavicle -6.36111e-015 1.35174e-014
lhumerus -84.3206 -8.65954 89.4709
lradius 88.4128
lwrist 20.8362
lhand -26.1693 -5.53291
lfingers 7.12502
lthumb 0.382278 24.4465
rfemur 0.217997 -0.65088 26.1397
rtibia 30.6143
rfoot -4.45007 -3.16414
rtoes -23.1546
lfemur -79.7086 3.1747 -17.6556
ltibia 93.6339
lfoot -12.4601 -7.40622
ltoes -1.84815
391
root 1.34852 16.3778 -15.6633 -156.037 1.13372 183.027
lowerback 13.1082 1.9208 6.41577
upperback -1.2071 3.76504 0.99556
thorax -8.33228 1.59333 -3.30217
lowerneck -17.7061 -1.69118 -2.51252
upperneck 2.67987 -1.95755 -1.09144
head 3.61604 -1.20335 -0.103845
rclavicle 4.92986e-014 1.98785e-014
rhumerus 1.61291 12.6328 -71.7326
rradius 131.115
rwrist -20.0519
rhand -27.3953 16.6363
rfingers 7.12502
rthumb -0.801857 -13.3419
lclavicle 4.92986e-014 1.98785e-014
lhumerus -86.4388 -9.07413 89.1689
lradius 89.4712
lwrist 20.6526
lhand -25.9228 -5.72927
lfingers 7.12502
lthumb 0.620282 24.2496
rfemur 3.2899 -0.0644771 26.1838
rtibia 27.2162
rfoot 2.42222 -3.98767
rtoes -19.4152
lfemur -80.3216 2.81708 -17.6544
ltibia 89.5898
lfoot -13.3405 -7.89494
ltoes -4.73414
392
root 1.34725 16.4253 -16.3046 -156.244 0.781963 183.189
lowerback 12.643 2.15351 6.7849
upperback -1.19454 4.08472 0.899338
thorax -7.98988 1.74433 -3.64205
lowerneck -17.9807 -2.04335 -2.72782
upperneck 3.11249 -2.36111 -0.840193
head 3.79912 -1.38693 -0.0304664
rclavicle 4.29375e-014 1.51076e-014
rhumerus 2.81831 10.996 -69.5305
rradius 132.329
rwrist -20.5901
rhand -27.0166 16.4523
rfingers 7.12502
rthumb -0.436109 -13.527
lclavicle 4.29375e-014 1.51076e-014
lhumerus -88.1294 -9.31884 88.6931
lradius 90.3577
lwrist 20.1413
lhand -25.7699 -5.94613
lfingers 7.12502
lthumb 0.768006 24.0322
rfemur 6.04306 0.485675 26.311
rtibia 24.1489
rfoot 9.19703 -5.14629
rtoes -14.9439
lfemur -80.5848 2.53352 -17.7151
ltibia 85.2775
lfoot -13.9214 -8.26258
ltoes -7.3006
393
root 1.34832 16.4755 -16.9437 -156.441 0.397687 183.358
lowerback 12.2688 2.33795 7.13146
upperback -1.17527 4.34102 0.802716
thorax -7.69626 1.86542 -3.95837
lowerneck -18.3131 -2.34255 -2.90482
upperneck 3.48179 -2.71144 -0.540911
head 3.97316 -1.54161 0.054407
rclavicle -2.38542e-015 0
rhumerus 3.74762 9.59762 -67.6551
rradius 133.016
rwrist -20.9315
rhand -26.5986 16.3242
rfingers 7.12502
rthumb -0.0324407 -13.6555
lclavicle -2.38542e-015 0
lhumerus -89.3623 -9.40966 88.0411
lradius 91.1063
lwrist 19.4067
lhand -25.6854 -6.18569
lfingers 7.12502
lthumb 0.849574 23.7924
rfemur 8.37707 0.974384 26.5409
rtibia 21.7195
rfoot 15.1226 -6.31019
rtoes -10.5842
lfemur -80.5202 2.34024 -17.8494
ltibia 80.7952
lfoot -14.1644 -8.50959
ltoes -9.47212
394
root 1.35276 16.5259 -17.5779 -156.646 -0.0300436 183.527
lowerback 12.0202 2.45906 7.44741
upperback -1.15406 4.51735 0.70732
thorax -7.48078 1.94655 -4.24761
lowerneck -18.6643 -2.57974 -3.0335
upperneck 3.76059 -2.99999 -0.205703
head 4.12298 -1.66318 0.147415
rclavicle -4.77083e-015 -1.03368e-014
rhumerus 4.30804 8.63079 -66.1859
rradius 133.208
rwrist -21.0398
rhand -26.1837 16.1929
rfingers 7.12502
rthumb 0.368335 -13.7865
lclavicle -4.77083e-015 -1.03368e-014
lhumerus -90.1474 -9.33984 87.2561
lradius 91.7524
lwrist 18.5725
lhand -25.6634 -6.40867
lfingers 7.12502
lthumb 0.870812 23.5693
rfemur 10.1509 1.33606 26.867
rtibia 20.3261
rfoot 19.6579 -7.21758
rtoes -6.8664
lfemur -80.1455 2.23675 -18.0857
ltibia 76.267
lfoot -14.1157 -8.61457
ltoes -11.4055
395
root 1.362 16.5742 -18.2049 -156.865 -0.499397 183.698
lowerback 11.9001 2.51234 7.7213
upperback -1.12974 4.60864 0.62138
thorax -7.34781 1.98504 -4.4968
lowerneck -19.0093 -2.75156 -3.11708
upperneck 3.93684 -3.22212 0.154746
head 4.24019 -1.7501 0.247232
rclavicle -6.59965e-014 -2.54444e-014
rhumerus 4.45171 8.2077 -65.1665
rradius 132.949
rwrist -20.9394
rhand -25.7611 16.0398
rfingers 7.12502
rthumb 0.776483 -13.9385
lclavicle -6.59965e-014 -2.54444e-014
lhumerus -90.4899 -9.09769 86.397
lradius 92.3217
lwrist 17.7528
lhand -25.697 -6.58331
lfingers 7.12502
lthumb 0.838439 23.3948
rfemur 11.2078 1.51614 27.2788
rtibia 20.3302
rfoot 22.5378 -7.811
rtoes -3.97695
lfemur -79.5102 2.23885 -18.4351
ltibia 71.8428
lfoot -13.7634 -8.60716
ltoes -12.9835
396
root 1.3763 16.6172 -18.8241 -157.132 -1.01214 183.866
lowerback 11.9108 2.60587 7.97127
upperback -1.08417 4.58099 0.55124
thorax -7.2735 1.88456 -4.69307
lowerneck -19.3301 -2.85595 -3.16343
upperneck 4.00266 -3.37286 0.523811
head 4.31866 -1.80167 0.351223
rclavicle 3.37934e-014 1.35174e-014
rhumerus 4.13342 8.38378 -64.6223
rradius 132.279
rwrist -20.577
rhand -25.3742 15.8703
rfingers 7.12502
rthumb 1.15011 -14.1063
lclavicle 3.37934e-014 1.35174e-014
lhumerus -90.3916 -8.67522 85.5384
lradius 92.8253
lwrist 17.0458
lhand -25.7913 -6.69313
lfingers 7.12502
lthumb 0.747319 23.2853
rfemur 11.5367 1.4557 27.7432
rtibia 21.8398
rfoot 23.8337 -8.22752
rtoes -1.76094
lfemur -78.6424 2.34764 -18.9176
ltibia 67.698
lfoot -13.1709 -8.50827
ltoes -14.2477
397
root 1.39548 16.6519 -19.436 -157.457 -1.55669 184.024
lowerback 12.0296 2.51588 8.13237
upperback -1.00694 4.48666 0.512509
thorax -7.25553 1.83349 -4.81424
lowerneck -19.6042 -2.89708 -3.1866
upperneck 3.96118 -3.45259 0.881111
head 4.35522 -1.8202 0.455848
rclavicle -2.54444e-014 2.14687e-014
rhumerus 3.33551 9.12121 -64.5521
rradius 131.248
rwrist -19.9899
rhand -25.0358 15.6715
rfingers 7.12502
rthumb 1.47695 -14.3031
lclavicle -2.54444e-014 2.14687e-014
lhumerus -89.8631 -8.06277 84.7663
lradius 93.2589
lwrist 16.5138
lhand -25.9702 -6.75939
lfingers 7.12502
lthumb 0.574528 23.2196
rfemur 11.2432 1.14002 28.2222
rtibia 24.6518
rfoot 23.9063 -8.73758
rtoes 0.114657
lfemur -77.598 2.56528 -19.5322
ltibia 64.0121
lfoot -12.4324 -8.33499
ltoes -15.2547
